<?xml version="1.0" standalone="no"?>
<!DOCTYPE svg PUBLIC "-//W3C//DTD SVG 20010904//EN"
 "http://www.w3.org/TR/2001/REC-SVG-20010904/DTD/svg10.dtd">
<svg version="1.0" xmlns="http://www.w3.org/2000/svg"
 width="696.000000pt" height="858.000000pt" viewBox="0 0 696.000000 858.000000"
 preserveAspectRatio="xMidYMid meet">

<g transform="translate(0.000000,858.000000) scale(0.100000,-0.100000)"
fill="#000000" stroke="none">
<path d="M3465 8020 c-4 -6 -60 -10 -136 -10 -106 0 -131 -3 -135 -15 -4 -8
-17 -15 -30 -15 -13 0 -24 -4 -24 -9 0 -5 -15 -16 -32 -24 -18 -9 -43 -25 -55
-36 -12 -12 -31 -21 -42 -21 -11 0 -26 -7 -35 -15 -8 -8 -19 -15 -25 -15 -6 0
-11 -4 -11 -10 0 -5 -9 -10 -20 -10 -11 0 -20 -7 -20 -15 0 -8 -5 -15 -11 -15
-13 0 -159 -147 -159 -160 0 -6 -7 -10 -15 -10 -8 0 -15 -9 -15 -19 0 -11 -4
-23 -10 -26 -5 -3 -10 -41 -10 -83 -1 -52 -5 -83 -15 -96 -8 -11 -15 -41 -15
-67 0 -26 -4 -51 -10 -54 -14 -9 -13 -288 1 -302 11 -11 0 -61 -22 -105 -15
-30 -10 -42 25 -66 52 -35 70 -27 74 31 2 33 -2 57 -13 74 -11 17 -14 34 -9
56 4 18 8 52 9 77 4 59 18 103 34 108 9 3 11 -2 6 -18 -5 -17 -2 -23 14 -27
22 -6 29 -37 11 -48 -16 -10 -12 -22 11 -28 13 -4 22 0 26 11 8 21 35 42 45
36 13 -8 -12 -44 -37 -54 -19 -7 -26 -21 -35 -67 -6 -32 -13 -62 -14 -68 -4
-12 23 -106 34 -120 30 -39 64 -119 80 -190 11 -46 29 -102 41 -124 15 -30 21
-59 21 -113 0 -77 11 -109 51 -147 l26 -23 20 41 c23 45 39 51 63 24 30 -34
76 -149 82 -203 6 -53 5 -56 -21 -67 -15 -7 -34 -13 -43 -13 -23 0 -40 -20
-40 -47 0 -26 -32 -43 -79 -43 -22 0 -34 -9 -55 -40 -14 -22 -26 -49 -26 -60
0 -11 -6 -20 -13 -20 -8 0 -13 -18 -13 -57 -1 -32 -5 -115 -9 -185 -9 -145
-18 -159 -70 -108 -30 29 -85 42 -85 20 0 -5 -7 -10 -15 -10 -8 0 -17 -14 -21
-37 -6 -30 -3 -39 15 -54 11 -9 21 -22 21 -27 0 -15 34 -72 43 -72 4 0 7 -9 7
-21 l0 -20 -30 21 c-49 35 -34 5 22 -44 29 -26 59 -44 65 -41 8 3 13 -4 13
-18 0 -15 23 -46 66 -87 36 -36 92 -102 124 -146 54 -76 180 -271 180 -279 0
-2 22 -39 48 -82 64 -103 79 -137 101 -228 17 -67 18 -79 5 -103 -8 -15 -14
-38 -14 -52 0 -14 -7 -35 -15 -47 -13 -19 -14 -30 -4 -70 7 -26 20 -59 31 -72
10 -13 18 -32 18 -42 0 -10 5 -21 10 -24 16 -10 12 -77 -6 -96 -11 -12 -16
-35 -16 -64 1 -36 -2 -45 -16 -45 -32 0 -43 -15 -36 -48 5 -26 9 -30 20 -21
10 8 14 8 14 0 0 -6 18 -11 43 -11 34 0 48 6 69 28 37 40 58 74 58 94 0 24
-19 23 -47 -4 -16 -15 -26 -19 -34 -11 -13 13 -7 159 9 218 18 67 43 139 59
168 13 24 13 37 2 93 -11 53 -10 71 1 102 12 34 55 113 90 166 34 51 55 81 60
86 3 3 19 23 35 45 65 89 239 287 363 413 24 24 67 76 96 115 30 40 69 86 89
104 47 42 55 69 28 94 -11 10 -26 19 -33 19 -15 1 -48 24 -48 34 0 8 -5 14
-53 66 -55 60 -66 66 -81 45 -9 -13 -11 -30 -6 -54 16 -76 22 -151 11 -151 -6
0 -11 -4 -11 -10 0 -5 20 -10 45 -10 44 0 54 -7 36 -26 -21 -22 -50 -85 -45
-98 9 -23 -2 -36 -162 -199 -209 -211 -338 -373 -435 -546 -20 -36 -40 -66
-45 -68 -5 -1 -31 44 -58 100 -50 102 -209 365 -295 487 -25 36 -73 97 -107
135 -67 77 -168 225 -159 233 7 7 148 -19 160 -30 5 -4 21 -8 35 -8 14 0 30
-4 35 -9 10 -9 116 -34 120 -29 11 14 11 79 0 95 -8 11 -17 47 -21 81 -5 48
-3 64 9 76 10 11 17 12 19 4 2 -6 15 -12 29 -13 18 -1 25 -8 27 -28 2 -19 13
-31 35 -41 48 -22 69 -23 97 -3 24 17 24 19 6 29 -62 35 -97 94 -48 81 25 -6
106 81 99 108 -5 19 -5 19 71 35 20 4 22 7 11 20 -7 8 -20 12 -31 8 -17 -5
-19 -2 -13 15 4 14 1 23 -9 27 -9 3 -16 12 -16 20 0 8 -9 23 -20 34 -23 23
-19 40 11 40 11 0 34 7 52 17 32 16 163 53 266 75 35 8 63 22 82 41 16 15 33
26 39 22 5 -3 10 2 10 13 0 10 23 39 50 64 28 25 59 66 71 92 21 49 39 53 40
8 0 -15 4 -36 9 -47 8 -18 9 -18 9 5 1 14 4 36 8 48 5 21 10 23 37 18 17 -4
33 -11 34 -16 2 -6 10 -10 18 -10 10 0 15 -14 16 -47 3 -81 -2 -116 -22 -160
-25 -54 -25 -64 0 -91 47 -50 120 -7 120 72 5 432 5 451 -8 448 -71 -15 -103
-14 -122 3 -19 17 -21 17 -40 0 -11 -10 -20 -26 -20 -35 0 -9 -7 -25 -15 -36
-8 -10 -15 -38 -15 -61 0 -24 -4 -43 -10 -43 -5 0 -10 14 -10 30 0 17 -2 30
-4 30 -11 0 -76 -43 -76 -49 0 -17 -66 -55 -94 -53 -16 2 -39 -4 -52 -13 -13
-8 -34 -15 -48 -15 -16 0 -27 -7 -31 -19 -19 -62 -268 -66 -345 -5 -8 6 -24
14 -35 16 -11 3 -28 9 -37 13 -14 5 -18 2 -18 -14 0 -12 -4 -21 -9 -21 -9 0
-21 34 -21 64 0 10 -8 26 -18 35 -31 27 -42 57 -42 115 0 44 3 56 15 56 9 0
20 11 25 25 7 18 17 25 35 25 25 0 33 14 15 25 -5 3 -10 13 -10 21 0 12 9 14
45 8 88 -13 149 17 94 46 -32 18 -17 34 42 45 53 10 162 6 175 -7 3 -4 -1 -15
-10 -24 -9 -9 -16 -18 -14 -19 2 -2 63 -1 136 2 148 7 148 7 140 84 -3 31 -6
34 -31 31 -18 -2 -46 8 -75 25 -41 24 -99 53 -107 53 -2 0 -5 -6 -8 -14 -4 -9
16 -36 51 -70 65 -63 54 -73 -33 -31 -53 26 -80 31 -89 16 -6 -10 -33 -4 -149
31 -59 18 -75 19 -124 9 -31 -6 -59 -9 -61 -6 -3 3 -3 6 -1 8 2 1 18 12 36 25
18 12 36 22 40 22 4 0 21 11 38 24 25 20 28 26 16 40 -11 13 -10 17 5 22 56
20 84 34 84 42 0 5 -18 17 -39 27 -22 10 -42 24 -45 31 -9 23 -43 16 -76 -16
l-30 -29 0 35 c0 26 8 42 33 67 26 24 35 44 40 81 4 27 19 74 33 103 20 43 23
57 13 69 -9 11 -15 12 -26 3 -10 -9 -11 -15 -3 -23 14 -14 13 -19 -15 -51
l-24 -29 -9 23 c-7 20 -10 21 -20 8 -18 -21 -49 -10 -60 23 -9 26 -29 35 -92
45 -8 1 -30 5 -49 10 -34 7 -34 8 -12 20 l23 12 -28 6 c-37 7 -72 33 -61 44
10 10 102 10 137 1 24 -7 73 -50 105 -93 15 -20 16 -19 43 13 16 17 36 32 46
32 9 0 28 7 41 16 17 11 41 15 82 12 56 -3 58 -2 61 23 l3 27 -83 1 -83 1 -33
39 c-38 47 -112 86 -146 77 -15 -4 -31 1 -46 14 -13 11 -29 20 -37 20 -17 0
-17 10 3 31 12 13 13 22 5 36 -6 10 -11 12 -11 6 0 -7 -8 -13 -19 -13 -10 0
-24 -7 -32 -16 -20 -24 -86 -54 -104 -48 -9 4 -21 17 -26 31 -7 19 -1 35 33
87 41 61 57 76 142 124 32 19 49 22 81 18 63 -10 96 -8 121 9 32 21 251 28
258 8 7 -16 58 -17 74 -1 8 8 15 8 24 0 8 -6 25 -13 40 -16 34 -6 71 -25 81
-42 4 -8 14 -14 21 -14 7 0 21 -9 31 -20 10 -11 56 -34 102 -51 72 -28 89 -38
109 -70 15 -24 24 -54 24 -78 0 -31 10 -55 46 -107 25 -37 53 -89 61 -116 14
-47 15 -168 2 -168 -4 0 -20 15 -36 33 -16 18 -37 36 -46 40 -31 12 -18 -15
28 -57 l45 -42 0 -101 c0 -106 3 -113 50 -113 21 0 30 19 30 65 0 20 6 35 15
39 12 4 15 24 15 90 0 47 5 88 10 91 6 3 10 44 10 90 0 46 -4 87 -10 90 -6 4
-10 55 -10 121 0 95 -3 114 -15 114 -8 0 -15 9 -15 19 0 11 -4 23 -10 26 -5 3
-10 26 -10 50 0 24 -4 47 -10 50 -5 3 -10 13 -10 22 0 14 -23 44 -60 79 -51
48 -82 74 -88 74 -4 0 -24 16 -44 35 -20 19 -41 35 -47 35 -6 0 -11 6 -11 13
0 7 -16 19 -35 27 -19 8 -35 17 -35 21 0 4 -11 10 -25 13 -14 4 -25 11 -25 16
0 6 -11 10 -25 10 -14 0 -25 5 -25 10 0 6 -16 10 -35 10 -24 0 -35 5 -35 15 0
12 -15 15 -75 15 -43 0 -75 4 -75 10 0 6 -26 10 -59 10 -33 0 -63 -4 -66 -10z
m-585 -740 c0 -5 -4 -10 -10 -10 -5 0 -10 5 -10 10 0 6 5 10 10 10 6 0 10 -4
10 -10z m-100 -70 c0 -5 -4 -10 -10 -10 -5 0 -10 5 -10 10 0 6 5 10 10 10 6 0
10 -4 10 -10z m473 -130 c6 -25 -8 -36 -56 -45 -36 -7 -38 -6 -29 11 6 11 13
27 16 37 8 25 62 23 69 -3z m-363 -40 c0 -5 -7 -10 -15 -10 -8 0 -15 5 -15 10
0 6 7 10 15 10 8 0 15 -4 15 -10z m270 -47 c16 11 28 13 41 7 12 -7 19 -6 21
2 7 21 25 -1 21 -26 -4 -17 -10 -22 -24 -19 -11 3 -25 1 -32 -5 -22 -19 -174
-27 -202 -12 -14 7 -28 10 -32 6 -4 -4 3 -9 15 -13 12 -3 22 -9 22 -14 0 -5
22 -9 49 -9 27 0 60 -4 73 -9 22 -8 49 -3 111 24 28 12 21 -34 -14 -89 -18
-30 -29 -58 -27 -75 3 -24 8 -26 57 -31 42 -4 51 -8 40 -16 -25 -19 -123 -62
-169 -74 -33 -9 -57 -25 -92 -63 -26 -28 -49 -49 -50 -47 -9 12 -33 71 -60
150 -51 147 -50 139 -22 152 l25 12 -22 17 c-21 16 -22 19 -10 55 7 22 27 50
43 63 29 23 34 24 100 15 54 -8 71 -7 80 3 9 11 13 10 23 -3 11 -16 14 -16 35
-1z m10 -555 c0 -18 -4 -20 -31 -14 -17 3 -43 6 -58 7 -24 0 -25 1 -5 9 12 4
24 15 27 24 9 23 67 1 67 -26z m0 -906 c0 -4 20 -16 45 -26 25 -11 45 -23 45
-28 0 -4 8 -8 18 -8 14 0 15 -2 2 -10 -25 -16 -46 -11 -60 15 -9 17 -17 22
-24 15 -16 -16 -23 -12 -40 20 -12 26 -12 30 0 30 8 0 14 -4 14 -8z m320
-1422 c0 -5 -4 -10 -10 -10 -5 0 -10 5 -10 10 0 6 5 10 10 10 6 0 10 -4 10
-10z"/>
<path d="M3718 7383 c-10 -2 -18 -9 -18 -14 0 -5 -14 -9 -30 -9 -17 0 -40 -9
-52 -20 -19 -17 -19 -20 -5 -20 9 0 17 4 17 9 0 12 43 22 53 12 5 -5 1 -15 -7
-24 -42 -42 2 -58 133 -50 83 5 104 3 125 -11 14 -9 30 -16 37 -16 6 0 23 -9
39 -20 15 -11 30 -17 34 -13 11 11 6 40 -9 53 -8 7 -15 16 -15 21 0 5 7 9 15
9 8 0 15 -5 15 -11 0 -5 5 -7 11 -3 15 9 -47 68 -65 61 -8 -3 -13 1 -12 11 1
10 -11 19 -34 25 -39 11 -205 18 -232 10z"/>
<path d="M3672 7222 c-19 -15 -25 -31 -29 -80 -3 -37 -1 -62 5 -62 5 0 28 -17
50 -37 22 -20 49 -37 59 -38 10 -1 31 -6 48 -10 28 -8 29 -8 12 9 -35 35 -22
45 69 51 36 2 69 6 71 9 9 9 -58 66 -77 66 -10 0 -31 7 -46 15 -16 8 -37 15
-48 15 -12 0 -16 5 -12 15 3 9 -3 19 -14 25 -11 6 -20 17 -20 25 0 21 -40 19
-68 -3z"/>
<path d="M4140 7210 c-6 -11 -17 -20 -24 -20 -9 0 -12 -8 -8 -25 2 -14 10 -25
17 -25 15 0 38 -26 41 -47 4 -22 14 -29 23 -14 5 7 4 29 -1 50 -5 20 -12 48
-15 64 -7 36 -19 42 -33 17z"/>
<path d="M3556 7131 c-16 -18 -16 -21 -1 -50 14 -29 55 -45 55 -22 0 5 2 15 5
23 2 7 -6 26 -18 41 -23 27 -24 27 -41 8z"/>
<path d="M3976 7134 c-9 -22 -8 -24 9 -24 8 0 15 6 15 14 0 22 -17 28 -24 10z"/>
<path d="M3615 7020 c-3 -5 1 -10 10 -10 9 0 13 5 10 10 -3 6 -8 10 -10 10 -2
0 -7 -4 -10 -10z"/>
<path d="M3908 6893 c7 -3 16 -2 19 1 4 3 -2 6 -13 5 -11 0 -14 -3 -6 -6z"/>
<path d="M2590 6792 c0 -17 -7 -37 -15 -46 -10 -10 -15 -35 -15 -79 0 -48 4
-66 15 -71 9 -3 15 -18 15 -38 0 -35 32 -109 65 -149 21 -26 22 -26 47 -7 l26
18 12 -35 c14 -43 46 -50 35 -7 -3 15 -9 43 -11 62 -3 19 -14 52 -25 72 -13
24 -20 55 -19 85 1 79 -11 126 -43 168 -17 22 -31 41 -31 42 -1 1 -13 4 -29 8
-25 7 -27 5 -27 -23z m50 -221 c0 -11 -4 -23 -10 -26 -6 -4 -10 5 -10 19 0 14
5 26 10 26 6 0 10 -9 10 -19z m50 -112 c0 -5 -4 -9 -10 -9 -5 0 -10 7 -10 16
0 8 5 12 10 9 6 -3 10 -10 10 -16z"/>
<path d="M3514 6805 c-16 -13 -17 -16 -4 -25 8 -6 28 -13 43 -17 18 -3 32 -15
38 -30 10 -28 36 -28 53 0 9 15 5 24 -26 53 -41 37 -73 43 -104 19z"/>
<path d="M4270 6730 c0 -5 5 -10 11 -10 5 0 7 5 4 10 -3 6 -8 10 -11 10 -2 0
-4 -4 -4 -10z"/>
<path d="M3520 6690 c0 -5 7 -7 15 -4 8 4 15 8 15 10 0 2 -7 4 -15 4 -8 0 -15
-4 -15 -10z"/>
<path d="M3610 6656 c0 -11 9 -16 26 -16 31 0 28 23 -4 28 -15 2 -22 -2 -22
-12z"/>
<path d="M3450 6382 c-68 -4 -81 -12 -45 -28 42 -19 69 -17 89 5 21 23 14 27
-44 23z"/>
<path d="M4050 5930 c0 -22 5 -40 10 -40 6 0 10 18 10 40 0 22 -4 40 -10 40
-5 0 -10 -18 -10 -40z"/>
<path d="M1679 4890 c-4 -83 10 -140 33 -140 12 0 -2 130 -18 160 -13 24 -13
24 -15 -20z"/>
<path d="M1049 4233 c-2 -16 -2 -55 1 -88 4 -51 6 -56 13 -32 4 16 5 37 2 47
-3 10 -1 36 4 59 7 31 6 41 -4 41 -7 0 -14 -12 -16 -27z"/>
<path d="M4561 4074 c0 -11 3 -14 6 -6 3 7 2 16 -1 19 -3 4 -6 -2 -5 -13z"/>
<path d="M967 3754 c-19 -20 -3 -56 48 -108 53 -53 75 -67 75 -47 0 6 -23 41
-51 78 -63 84 -64 85 -72 77z"/>
<path d="M4531 3444 c-7 -8 -11 -18 -7 -21 9 -10 36 6 36 22 0 19 -11 19 -29
-1z"/>
<path d="M2382 3420 c0 -14 2 -19 5 -12 2 6 2 18 0 25 -3 6 -5 1 -5 -13z"/>
<path d="M4554 3389 c-2 -4 8 -10 22 -13 24 -6 25 -9 11 -24 -8 -9 -15 -24
-15 -32 0 -8 -4 -38 -7 -66 -5 -33 -3 -59 5 -73 l11 -22 31 31 c19 20 27 35
21 41 -11 11 -5 56 8 65 13 7 11 51 -2 59 -6 4 -8 13 -5 20 3 9 -8 14 -35 17
-22 2 -42 1 -45 -3z"/>
<path d="M5128 3344 c-4 -3 -3 -17 2 -30 12 -32 4 -52 -31 -69 -40 -21 -80
-19 -86 4 -4 17 -13 11 -55 -35 -40 -42 -54 -52 -64 -43 -20 17 -44 3 -44 -25
0 -17 -13 -35 -39 -56 -51 -42 -99 -117 -125 -199 -29 -87 -41 -108 -69 -115
-21 -5 -25 -13 -29 -54 -3 -26 -13 -66 -23 -89 -18 -41 -18 -41 -92 -52 -91
-14 -403 -14 -498 0 -38 5 -108 14 -155 19 -155 17 -249 38 -275 61 -5 5 -33
9 -62 9 -29 0 -99 12 -155 26 -166 41 -182 45 -213 54 -16 4 -60 11 -98 15
-51 5 -75 13 -97 31 -29 25 -88 42 -245 70 -44 8 -105 19 -136 24 -30 6 -68
10 -83 10 -26 0 -27 -2 -24 -37 l3 -38 -80 3 c-76 2 -140 -7 -195 -30 -73 -31
-70 -26 -70 -98 l0 -67 83 -124 c99 -148 157 -263 157 -312 0 -20 -3 -38 -8
-40 -4 -3 -26 2 -50 10 -55 18 -209 13 -307 -11 -38 -10 -87 -20 -108 -23 -20
-3 -40 -9 -43 -14 -3 -5 -17 -9 -32 -9 -15 0 -36 -7 -46 -15 -11 -8 -30 -15
-42 -15 -13 0 -26 -4 -29 -10 -3 -5 -15 -10 -26 -10 -10 0 -27 -4 -37 -9 -9
-5 -37 -17 -62 -26 -25 -9 -53 -21 -62 -26 -10 -5 -22 -9 -27 -9 -11 0 -203
-89 -293 -135 -36 -19 -73 -35 -81 -35 -8 0 -43 -16 -77 -35 -34 -19 -66 -35
-71 -35 -4 0 -28 -20 -53 -44 -41 -39 -45 -48 -42 -82 3 -31 10 -43 33 -56 30
-18 50 -69 83 -213 6 -27 15 -51 21 -53 5 -2 9 -13 9 -25 0 -12 11 -34 25 -49
14 -15 25 -32 25 -38 0 -5 4 -10 9 -10 5 0 24 -16 42 -35 l33 -35 217 0 c177
0 219 -3 229 -15 7 -9 22 -12 39 -9 35 7 40 -8 30 -91 -25 -206 -31 -255 -41
-295 -6 -25 -11 -69 -10 -98 0 -43 5 -57 22 -69 18 -13 20 -21 14 -59 -5 -38
-4 -43 10 -38 11 4 16 19 16 48 0 23 4 46 10 52 5 5 12 38 14 73 3 35 10 69
16 75 5 5 10 31 10 56 0 25 4 50 9 56 11 12 20 134 9 134 -4 0 -8 5 -8 11 0 6
6 9 14 6 17 -7 26 13 26 56 0 22 7 36 21 45 17 11 28 9 76 -18 31 -16 86 -37
122 -45 108 -26 144 -34 177 -40 44 -8 70 -37 78 -84 9 -60 32 -52 55 21 11
35 15 37 44 32 18 -3 45 -10 61 -15 16 -5 76 -9 133 -9 106 0 143 -9 143 -35
0 -8 5 -15 10 -15 6 0 10 -11 10 -24 0 -13 7 -29 15 -36 8 -7 15 -22 16 -34 0
-12 3 -15 6 -8 3 8 1 24 -5 35 -21 42 -34 99 -26 107 5 4 47 11 94 14 93 6
239 19 395 35 86 9 332 54 445 81 19 5 56 14 83 19 26 6 56 15 66 21 11 5 31
10 45 10 14 0 28 4 31 10 3 5 17 10 31 10 13 0 32 4 42 9 63 34 213 54 227 31
3 -5 31 -10 61 -10 39 0 56 -4 60 -15 5 -12 28 -15 119 -15 63 0 116 4 120 9
3 5 20 13 37 17 18 3 39 10 48 14 44 23 102 31 137 19 46 -15 357 -4 434 15
90 23 127 27 134 16 12 -19 33 -10 43 19 16 46 62 64 173 69 65 3 125 -1 190
-14 129 -24 214 -28 252 -13 51 19 96 69 130 139 17 36 34 67 39 68 4 2 8 12
8 22 0 10 5 22 10 25 6 3 10 16 10 28 0 12 7 35 15 51 40 77 -6 290 -72 329
-7 4 -13 14 -13 20 0 7 -17 31 -37 53 -21 22 -47 53 -58 68 -19 26 -29 38 -77
96 -66 78 -78 90 -78 75 0 -8 5 -15 10 -15 6 0 10 -5 10 -11 0 -7 19 -35 43
-63 62 -73 137 -183 137 -201 0 -24 -37 -18 -44 8 l-7 22 -10 -24 c-8 -19 -12
-21 -24 -11 -12 10 -16 9 -21 -3 -10 -28 0 -50 29 -60 24 -8 33 -5 53 14 13
12 24 17 24 11 0 -7 -1 -13 -2 -14 -2 -2 5 -14 15 -28 9 -13 17 -34 17 -45 0
-28 -52 -135 -66 -135 -6 0 -28 -13 -49 -30 -21 -16 -46 -30 -56 -30 -9 0 -45
-14 -79 -32 -51 -26 -65 -29 -79 -19 -9 6 -24 14 -33 17 -10 4 -20 14 -23 25
-3 10 -12 16 -19 13 -8 -3 -16 4 -19 17 -5 17 -11 20 -29 16 -12 -4 -56 -1
-98 5 -55 7 -79 16 -91 31 -11 13 -21 17 -30 11 -8 -4 -37 -9 -66 -11 -41 -3
-53 0 -53 11 0 20 -9 24 -87 46 -36 11 -74 27 -83 35 -12 11 -20 13 -25 6 -10
-17 -40 -13 -60 9 -10 11 -26 20 -36 20 -27 0 -98 40 -110 61 -5 11 -16 19
-24 19 -7 0 -28 15 -46 32 -41 41 -94 61 -120 45 -16 -10 -25 -5 -60 31 -32
34 -44 41 -54 32 -16 -13 -33 -5 -53 22 -7 10 -20 18 -28 18 -12 0 -12 5 2 33
22 42 36 50 51 31 11 -15 14 -14 38 4 14 12 35 32 46 46 16 20 26 25 45 20 15
-4 34 0 49 10 13 9 34 16 45 16 11 0 39 9 62 21 26 13 49 18 65 14 14 -3 31
-1 39 6 14 11 41 9 77 -6 11 -5 17 -3 17 7 0 26 73 58 132 58 50 0 58 3 86 35
21 22 45 36 69 41 21 4 44 11 50 16 7 6 25 7 40 3 16 -4 55 -8 88 -9 33 -1 76
-9 95 -18 40 -19 110 -30 110 -19 0 22 -165 162 -237 201 -119 66 -132 76
-106 84 25 8 49 46 29 46 -25 0 -28 18 -10 50 15 25 16 33 4 54 -11 22 -11 32
3 66 14 36 14 42 1 47 -16 6 -64 -33 -64 -51 0 -6 -24 -38 -52 -72 -29 -33
-64 -77 -78 -97 -25 -37 -54 -46 -94 -31 -33 13 2 134 39 134 6 0 22 24 35 53
38 81 57 104 113 132 29 15 63 37 77 51 14 13 38 34 53 45 26 20 27 22 10 34
-17 13 -17 15 1 45 15 27 16 34 5 41 -21 13 -23 12 -81 -36 -30 -25 -60 -45
-67 -45 -6 0 -11 -4 -11 -10 0 -5 -6 -10 -14 -10 -7 0 -26 -16 -40 -35 -15
-19 -53 -54 -84 -78 -31 -23 -63 -48 -70 -54 -7 -7 -16 -13 -20 -13 -18 0
-114 -103 -151 -162 -23 -36 -48 -69 -56 -72 -8 -3 -15 -4 -15 -3 2 33 56 166
79 194 25 31 30 45 25 69 -5 26 2 38 60 101 48 51 80 77 114 89 89 34 192 95
192 114 0 9 7 23 15 30 17 14 20 40 4 40 -6 0 -36 -14 -66 -30 -31 -17 -58
-28 -61 -25 -3 2 -6 24 -6 47 -1 38 -14 57 -28 42z m-2498 -521 c97 -7 99 -23
2 -23 -48 0 -82 4 -82 10 0 6 -7 10 -15 10 -8 0 -15 5 -15 11 0 7 8 9 23 4 12
-4 51 -10 87 -12z m-267 -870 c-7 -2 -19 -2 -25 0 -7 3 -2 5 12 5 14 0 19 -2
13 -5z m127 -34 c0 -15 -5 -20 -21 -17 -30 4 -49 35 -30 48 21 12 51 -6 51
-31z m1082 -388 c20 -17 46 -31 57 -31 12 0 21 -6 21 -15 0 -9 -6 -15 -12 -14
-27 3 -38 -2 -38 -16 0 -12 -4 -13 -18 -4 -14 9 -27 7 -60 -10 -49 -25 -61
-26 -99 -7 -65 33 -86 34 -121 7 -36 -27 -64 -21 -70 14 -6 29 29 95 50 95 10
0 18 4 18 9 0 17 33 21 56 6 34 -22 91 -20 104 4 9 18 13 19 43 6 17 -7 49
-27 69 -44z m-572 24 c7 -9 20 -13 28 -10 8 3 20 1 27 -5 9 -8 15 -8 20 0 8
12 35 13 54 1 17 -11 5 -71 -15 -71 -8 0 -23 9 -34 20 -11 11 -22 15 -25 10
-4 -6 -16 -8 -28 -6 -12 1 -16 1 -9 -1 21 -8 13 -23 -13 -23 -16 0 -25 6 -25
15 0 8 -6 15 -14 15 -22 0 -27 14 -13 44 14 29 29 33 47 11z m932 -276 c21
-16 26 -24 17 -29 -15 -10 -59 17 -59 36 0 19 7 18 42 -7z m-2212 -231 c-1
-30 -15 -35 -33 -12 -18 24 -18 24 8 24 14 0 25 -6 25 -12z"/>
<path d="M5516 3129 c-19 -38 -19 -39 -6 -39 6 0 10 7 10 15 0 8 4 15 9 15 13
0 22 28 11 35 -4 3 -16 -9 -24 -26z"/>
<path d="M5434 2753 c-11 -11 -13 -18 -5 -21 10 -3 41 20 41 32 0 12 -19 6
-36 -11z"/>
<path d="M861 1356 c-9 -11 -8 -15 5 -20 20 -8 39 7 30 23 -10 15 -21 14 -35
-3z"/>
<path d="M2720 695 c0 -14 4 -25 9 -25 4 0 6 11 3 25 -2 14 -6 25 -8 25 -2 0
-4 -11 -4 -25z"/>
<path d="M2740 650 c0 -8 5 -22 10 -30 9 -13 10 -13 10 0 0 8 -5 22 -10 30 -9
13 -10 13 -10 0z"/>
<path d="M2772 570 c0 -14 2 -19 5 -12 2 6 2 18 0 25 -3 6 -5 1 -5 -13z"/>
<path d="M1603 370 c0 -25 2 -35 4 -22 2 12 2 32 0 45 -2 12 -4 2 -4 -23z"/>
<path d="M1577 303 c-11 -10 -8 -91 3 -98 6 -4 10 15 10 49 0 57 -1 61 -13 49z"/>
<path d="M1547 154 c-10 -11 -9 -74 2 -74 13 0 23 48 13 66 -4 8 -11 11 -15 8z"/>
</g>
</svg>
